<svg width="192" height="192" viewBox="0 0 192 192" fill="none" xmlns="http://www.w3.org/2000/svg">
<g clip-path="url(#clip0_61_29)">
<circle cx="96" cy="96" r="96" fill="#F5F3EE"/>
<path d="M136.526 55.5597H119.556V67.1459C126.031 61.7984 128.041 60.0159 136.526 55.5597Z" fill="#272727"/>
<path d="M114.644 72.4934V55.5597H89.8591V60.6844C87.1797 60.6844 82.9372 55.1141 67.5306 54.8912C39.3966 55.1141 26 79.4005 26 95.443C26.2227 119.507 43.8623 138 69.764 138C76.9091 137.777 84.9817 135.772 94.3253 128.642C113.305 114.159 124.246 96.557 130.944 89.6499C138.313 81.8515 148.807 74.7215 156.845 74.4987C163.276 74.3204 165.479 75.6127 165.777 76.2812L166 54H156.845C150.817 54 145.458 55.5597 136.526 60.6844C129.381 64.7841 117.785 76.2091 115.091 79.6233C106.829 90.0955 99.2376 99.4536 91.4224 106.138C86.7336 110.371 78.6954 117.279 69.764 117.501C58.823 117.501 49.8913 105.915 49.8913 95.443C49.8913 85.1936 58.3764 72.7162 70.8802 72.7162C81.8211 72.7162 93.8786 82.5199 91.4224 98.1167L114.644 72.4934Z" fill="#272727"/>
<path d="M119.556 135.549V110.817L143.448 84.0796L143.001 135.549H119.556Z" fill="#272727"/>
<path d="M113.974 116.387L113.751 135.549H92.7618C100.13 130.87 108.169 125.077 113.974 116.387Z" fill="#272727"/>
</g>
<defs>
<clipPath id="clip0_61_29">
<rect width="192" height="192" fill="white"/>
</clipPath>
</defs>
</svg>
